<svg width="11" height="8" viewBox="0 0 11 8" fill="none" xmlns="http://www.w3.org/2000/svg">
<path d="M6.35675 7.78793C6.23561 7.66102 6.17746 7.50766 6.18231 7.32787C6.18756 7.14807 6.25075 6.99472 6.3719 6.8678L8.08303 5.07514H1.32934C1.15773 5.07514 1.01377 5.01422 0.897472 4.89238C0.781579 4.77097 0.723633 4.62036 0.723633 4.44057C0.723633 4.26077 0.781579 4.10996 0.897472 3.98812C1.01377 3.8667 1.15773 3.806 1.32934 3.806L8.08303 3.806L6.35675 1.99747C6.23561 1.87055 6.17504 1.71974 6.17504 1.54502C6.17504 1.37072 6.23561 1.22012 6.35675 1.0932C6.4779 0.966289 6.62185 0.902832 6.78863 0.902832C6.95499 0.902832 7.09875 0.966289 7.21989 1.0932L9.99102 3.99637C10.0516 4.05982 10.0946 4.12857 10.12 4.2026C10.1451 4.27664 10.1576 4.35596 10.1576 4.44057C10.1576 4.52518 10.1451 4.6045 10.12 4.67853C10.0946 4.75257 10.0516 4.82131 9.99102 4.88477L7.20475 7.8038C7.0937 7.92013 6.95499 7.9783 6.78863 7.9783C6.62185 7.9783 6.4779 7.91485 6.35675 7.78793Z" fill="black"/>
</svg>
