<svg width="11" height="8" viewBox="0 0 11 8" fill="none" xmlns="http://www.w3.org/2000/svg">
<path d="M4.52459 1.09342C4.64574 1.22033 4.70389 1.37368 4.69904 1.55348C4.69379 1.73328 4.63059 1.88663 4.50945 2.01354L2.79832 3.80621L9.552 3.80621C9.72362 3.80621 9.86758 3.86713 9.98388 3.98897C10.0998 4.11038 10.1577 4.26098 10.1577 4.44078C10.1577 4.62058 10.0998 4.77139 9.98388 4.89323C9.86758 5.01464 9.72362 5.07535 9.552 5.07535L2.79832 5.07535L4.52459 6.88388C4.64574 7.01079 4.70631 7.16161 4.70631 7.33633C4.70631 7.51062 4.64574 7.66123 4.52459 7.78814C4.40345 7.91506 4.25949 7.97852 4.09272 7.97852C3.92635 7.97852 3.7826 7.91506 3.66145 7.78814L0.890324 4.88498C0.829752 4.82152 0.786746 4.75278 0.761306 4.67874C0.73627 4.60471 0.723752 4.52539 0.723752 4.44078C0.723752 4.35617 0.73627 4.27685 0.761306 4.20281C0.786746 4.12878 0.829752 4.06004 0.890324 3.99658L3.6766 1.07755C3.78765 0.961213 3.92635 0.903043 4.09272 0.903043C4.2595 0.903043 4.40345 0.966501 4.52459 1.09342Z" fill="black"/>
</svg>
