<svg width="36" height="42" viewBox="0 0 36 42" fill="none" xmlns="http://www.w3.org/2000/svg">
<path d="M34.5 29.5916V29.5972V32.3455C34.5 34.3249 33.1301 36.33 30.1665 37.9221C27.231 39.4992 22.9904 40.5 18 40.5C13.0099 40.5 8.76925 39.498 5.83349 37.9208C2.86899 36.3282 1.50003 34.3241 1.50003 32.3506L1.50004 29.5972L1.50002 29.5916C1.49874 29.2491 1.56566 28.9094 1.69736 28.5917C1.82908 28.274 2.0232 27.9841 2.26942 27.7389C2.51567 27.4937 2.8092 27.2981 3.13363 27.1641C3.45765 27.0302 3.80567 26.9606 4.15769 26.9596H31.8465C32.198 26.9611 32.5453 27.0311 32.8687 27.165C33.1927 27.2992 33.4858 27.4949 33.7317 27.74C33.9776 27.9852 34.1714 28.275 34.303 28.5925C34.4344 28.91 34.5013 29.2494 34.5 29.5916ZM26.7857 10.1773C26.7866 11.3155 26.5609 12.4431 26.1212 13.4958C25.6815 14.5486 25.0361 15.5064 24.2211 16.3141C23.4061 17.1218 22.4375 17.7636 21.3702 18.202C20.3028 18.6405 19.1581 18.8668 18.0015 18.8676C16.8449 18.8685 15.6998 18.6439 14.6317 18.207C13.5637 17.7702 12.5941 17.1298 11.7779 16.3233C10.9617 15.5168 10.3149 14.56 9.87356 13.5078C9.43225 12.4558 9.20488 11.3285 9.20402 10.1903C9.20228 7.89232 10.1229 5.68455 11.7686 4.05357C13.4148 2.42206 15.6517 1.50174 17.9883 1.5C20.3248 1.49827 22.5632 2.41528 24.2118 4.04435C25.86 5.67291 26.784 7.87932 26.7857 10.1773Z" stroke="black" stroke-width="3"/>
</svg>
