<svg width="13" height="10" viewBox="0 0 13 10" fill="none" xmlns="http://www.w3.org/2000/svg">
<path d="M10.4176 9.52331C10.1735 9.45128 9.98928 9.29985 9.86501 9.06901C9.74124 8.83788 9.70942 8.59789 9.76953 8.34902L10.6186 4.83377L2.13731 9.76323C1.92179 9.88849 1.69684 9.91655 1.46245 9.84741C1.22889 9.77851 1.04692 9.6304 0.916562 9.4031C0.786204 9.17581 0.749625 8.94285 0.806827 8.70423C0.864843 8.46585 1.00161 8.28403 1.21713 8.15877L9.69845 3.22931L6.21932 2.20294C5.97517 2.13092 5.78976 1.98447 5.66308 1.76358C5.53671 1.54324 5.50358 1.30863 5.5637 1.05976C5.62381 0.810897 5.75858 0.625601 5.96802 0.503875C6.17694 0.382444 6.40348 0.35774 6.64763 0.429766L12.2325 2.07735C12.3546 2.11336 12.4585 2.16888 12.5441 2.24391C12.6292 2.31923 12.7024 2.41037 12.7638 2.51733C12.8251 2.6243 12.8669 2.73371 12.8892 2.84558C12.9109 2.95774 12.9067 3.07604 12.8767 3.20047L11.4941 8.92442C11.439 9.15254 11.3069 9.32733 11.098 9.44876C10.8886 9.57048 10.6618 9.59533 10.4176 9.52331Z" fill="black"/>
</svg>
