<svg width="56" height="56" viewBox="0 0 56 56" fill="none" xmlns="http://www.w3.org/2000/svg">
<rect x="0.344727" y="0.216797" width="55" height="55" rx="27.5" fill="white"/>
<path d="M33.1421 32.9561C32.7717 32.8476 32.4922 32.6193 32.3036 32.2715C32.1159 31.9231 32.0676 31.5614 32.1588 31.1864L33.447 25.8886L20.5795 33.3177C20.2525 33.5065 19.9112 33.5488 19.5557 33.4446C19.2013 33.3407 18.9252 33.1175 18.7274 32.775C18.5297 32.4324 18.4742 32.0813 18.561 31.7217C18.649 31.3625 18.8565 31.0884 19.1835 30.8997L32.051 23.4706L26.7726 21.9238C26.4022 21.8152 26.1209 21.5945 25.9287 21.2616C25.7369 20.9296 25.6867 20.576 25.7779 20.2009C25.8691 19.8259 26.0736 19.5466 26.3913 19.3632C26.7083 19.1802 27.052 19.1429 27.4224 19.2515L35.8956 21.7345C36.0808 21.7888 36.2383 21.8725 36.3682 21.9855C36.4974 22.099 36.6085 22.2364 36.7016 22.3976C36.7946 22.5588 36.858 22.7237 36.8918 22.8923C36.9247 23.0613 36.9184 23.2396 36.8728 23.4271L34.7752 32.0535C34.6916 32.3973 34.4913 32.6608 34.1743 32.8438C33.8566 33.0272 33.5125 33.0647 33.1421 32.9561Z" fill="black"/>
</svg>
