<svg width="26" height="26" viewBox="0 0 26 26" fill="none" xmlns="http://www.w3.org/2000/svg">
<rect x="0.251953" y="0.693848" width="25.1442" height="25.1095" rx="12.5548" fill="white"/>
<path d="M15.2459 15.6404C15.0766 15.5908 14.9488 15.4866 14.8626 15.3278C14.7768 15.1688 14.7547 15.0036 14.7964 14.8324L15.3853 12.4138L9.50273 15.8054C9.35325 15.8916 9.19722 15.9109 9.03466 15.8634C8.87265 15.8159 8.74644 15.714 8.65603 15.5577C8.56561 15.4013 8.54024 15.241 8.57991 15.0768C8.62015 14.9128 8.71502 14.7877 8.8645 14.7015L14.7471 11.3099L12.334 10.6037C12.1647 10.5541 12.0361 10.4534 11.9482 10.3014C11.8605 10.1498 11.8376 9.98839 11.8793 9.81716C11.921 9.64593 12.0144 9.51844 12.1597 9.43469C12.3046 9.35114 12.4617 9.33414 12.6311 9.3837L16.5047 10.5173C16.5894 10.5421 16.6614 10.5803 16.7208 10.6319C16.7799 10.6837 16.8307 10.7464 16.8732 10.82C16.9158 10.8936 16.9448 10.9689 16.9602 11.0459C16.9752 11.123 16.9724 11.2044 16.9515 11.29L15.9925 15.2283C15.9543 15.3853 15.8628 15.5055 15.7178 15.5891C15.5726 15.6728 15.4153 15.6899 15.2459 15.6404Z" fill="black"/>
</svg>
